<svg viewBox="0 0 1024 1024" xmlns="http://www.w3.org/2000/svg" width="200" height="200"><path fill="currentColor" d="M931.84 675.84c0 12.288-8.192 20.48-20.48 20.48s-20.48-8.192-20.48-20.48V419.84c0-34.816-26.624-61.44-61.44-61.44h-409.6c-34.816 0-61.44 26.624-61.44 61.44v409.6c0 34.816 26.624 61.44 61.44 61.44h409.6c34.816 0 61.44-26.624 61.44-61.44v-45.056c0-12.288 8.192-20.48 20.48-20.48s20.48 8.192 20.48 20.48v45.056c0 57.344-45.056 102.4-102.4 102.4h-409.6c-57.344 0-102.4-45.056-102.4-102.4v-409.6c0-57.344 45.056-102.4 102.4-102.4h409.6c57.344 0 102.4 45.056 102.4 102.4v256z m-225.28-454.656c0 12.288-8.192 20.48-20.48 20.48s-20.48-8.192-20.48-20.48V194.56c0-34.816-26.624-61.44-61.44-61.44h-409.6c-34.816 0-61.44 26.624-61.44 61.44v409.6c0 34.816 26.624 61.44 61.44 61.44h32.768c12.288 0 20.48 8.192 20.48 20.48s-8.192 20.48-20.48 20.48h-32.768c-57.344 0-102.4-45.056-102.4-102.4v-409.6c0-57.344 45.056-102.4 102.4-102.4h409.6c57.344 0 102.4 45.056 102.4 102.4v26.624z"></path></svg>