<svg t="1782192163195" class="icon" viewBox="0 0 1024 1024" version="1.1" xmlns="http://www.w3.org/2000/svg" width="200" height="200"><path fill="currentColor" d="M574.8 537.5H228c-2.1 0-2.1 0-2.1 2.1v37.2c0 2.1 0 2.1 2.1 2.1h346.8l2.1-2.1v-37.2c0-2.1 0-2.1-2.1-2.1zM574.8 457.6H228c-2.1 0-2.1 0-2.1 2.1v37.2c0 2.1 0 2.1 2.1 2.1h346.8l2.1-2.1v-37.2c0-2.1 0-2.1-2.1-2.1zM228 410.6h119.7l2.1-2.1v-57.8c0-2.1 0-2.1-2.1-2.1H228c-2.1 0-2.1 0-2.1 2.1v57.8s0 2.1 2.1 2.1z"></path><path fill="currentColor" d="M593.4 243.2h-384c-33 0-61.9 28.9-61.9 61.9v349.7L292 803.4h301.4c33 0 61.9-28.9 61.9-61.9V305.1c0-33-28.9-61.9-61.9-61.9zM211.1 663h95.4v97l-95.4-97zM614 741.5c0 10.3-10.3 20.6-20.6 20.6H347.7V642.4c0-12.4-8.3-20.6-20.6-20.6H186.7V305.1c0-10.3 10.3-20.6 20.6-20.6h386c10.3 0 20.6 10.3 20.6 20.6v436.4h0.1z"></path><path fill="currentColor" d="M755.3 310.8H633V352.1h122.3c10.3 0 20.6 10.3 20.6 20.6V809.1c0 10.3-10.3 20.6-20.6 20.6H428.1c-10.3 0-20.6-10.3-20.6-20.6v-29.6h-39.2V809.1c0 33 28.9 61.9 61.9 61.9h325.1c33 0 61.9-28.9 61.9-61.9V372.7c0-33-28.9-61.9-61.9-61.9z"></path></svg>